<svg xmlns="http://www.w3.org/2000/svg" xmlns:xlink="http://www.w3.org/1999/xlink" viewBox="0 0 127.83 220.08"><defs><style>.cls-1{fill:url(#linear-gradient);}.cls-2{fill:url(#linear-gradient-2);}.cls-3{fill:#ffda3f;}.cls-4{fill:#ffce99;opacity:0.53;}</style><linearGradient id="linear-gradient" x1="63.91" y1="220.08" x2="63.91" gradientUnits="userSpaceOnUse"><stop offset="0" stop-color="#ff8f3f"/><stop offset="0.87" stop-color="#ffed7f"/></linearGradient><linearGradient id="linear-gradient-2" x1="61.46" y1="90.36" x2="61.46" y2="214.37" gradientUnits="userSpaceOnUse"><stop offset="0" stop-color="#ff7300"/><stop offset="0.1" stop-color="#f66f00"/><stop offset="0.26" stop-color="#dc6400"/><stop offset="0.46" stop-color="#b35300"/><stop offset="0.7" stop-color="#793b00"/><stop offset="0.97" stop-color="#301d00"/><stop offset="0.99" stop-color="#2a1a00"/></linearGradient></defs><g id="Layer_2" data-name="Layer 2"><g id="Layer_1-2" data-name="Layer 1"><path class="cls-1" d="M39.83,218.7c11.78,3.72,18.57-1.31,46.3-.68,8.2.18,8.29.59,10.55,0,7.17-1.89,13.27-30.13,25.19-49,1.57-2.49,5.15-7.83,4.84-14.89-.18-4.27-1.67-6.34-2.8-9.62-5.07-14.8,5.53-29.75,2.73-31.32-1.79-1-4.7,6-10.9,7.49-12.06,2.92-32-14.07-33.36-33C81.49,74.73,89.52,64.62,94,59c15.25-19.2,31.82-17.4,33.7-27.92C130.07,17.65,106.29-4.56,89.87.83c-11,3.61-18.32,19.53-14.64,23.83,4,4.71,20.13,1.8,22.47-4.77,1.21-3.4-1.57-7.1.34-8.85,1.72-1.57,5.49,0,7.15.68,4.84,2,12,7.11,12.26,12.6.33,6.78-10,11.16-25.19,19.74C59.57,62.53,44.88,77.62,41.19,74c-3.27-3.2,6.89-16.49,4.43-18.39-2.66-2-18.24,9.5-27.24,24.52C5.15,102.24,8.7,127.69,12.26,142.1L0,141.08a159.64,159.64,0,0,1,9.19,26.21c4.61,18,3.22,25.66,9.87,35.41C20.84,205.3,27.79,214.9,39.83,218.7Z"/><path class="cls-2" d="M27.91,186.7C38.6,205.47,64.15,220.1,81,212.16c10.39-4.89,14.19-16.84,17.05-25.8,7.21-22.58.43-42.76-2.76-51.81A100.88,100.88,0,0,0,64,90.36q-3.06,13.27-6.13,26.55l-14-21.79a113.3,113.3,0,0,0-17.36,37.11C22.62,147.44,17.28,168,27.91,186.7Z"/><path class="cls-3" d="M29.42,157.69c.22-.18.37-.32.43-.38.95-.89,9.39-7.75,17.45-5,5.21,1.77,8.48,6.95,7.84,7.93-.87,1.33-8.26-5.88-17.63-3.73-3.3.76-4.63,4.64-8.62,4.67-1.85,0-3.49-.66-3.49-1.11S27.29,159.5,29.42,157.69Z"/><path class="cls-3" d="M92,154.61l-.49-.32c-.64-.39-10.33-6.21-18-2.1-4.85,2.59-7.24,8.24-6.44,9.11,1.07,1.16,7.19-7.15,16.79-6.55,4.25.27,8.14,4.38,9.26,3.21a1.56,1.56,0,0,0,.17-1.35"/><path class="cls-3" d="M79.61,186.74c-4.29-2-11.71-5.55-18-2.31-5,2.59-7.25,8.41-6.55,9s5-6.59,11.76-6.53c3.41,0,5.33,1.95,12.34,2.47,3.15.23,3.67-.09,3.74-.34C83.08,188.39,80.41,187.12,79.61,186.74Z"/><path class="cls-4" d="M62.67,189.94a5.39,5.39,0,0,1,6.59-.37c.66.48,1.48,1.36,1.27,1.79s-2.17-.48-4.85-.07c-2.37.37-3.6,1.6-4,1.15S61.85,190.76,62.67,189.94Z"/></g></g></svg>