<svg xmlns="http://www.w3.org/2000/svg" viewBox="0 0 609.23 166.13"><defs><style>.cls-1,.cls-6{fill:#283b8f;}.cls-2{fill:#2655a1;}.cls-3{fill:#2474bb;}.cls-4{fill:#2189ca;}.cls-5{fill:#1fa1db;}.cls-6{font-size:78px;font-family:ArialMT, Arial;}.cls-7{font-size:25px;fill:#fff;font-family:Arial-BoldMT, Arial;font-weight:700;letter-spacing:0.07em;}.cls-8{letter-spacing:0em;}</style></defs><g id="Layer_2" data-name="Layer 2"><g id="Layer_1-2" data-name="Layer 1"><path class="cls-1" d="M42.24,0h.47L86.24,90.82l43.23-90,12.3,105.3-8.24.23-8.7-76.94Q105.42,69.66,86,109.88L46.94,27.44q-4.21,39.32-8.44,78.62l-8,.06C38.8,27.9,42,0,42.24,0Z"/><polygon class="cls-2" points="35.71 11.85 25.43 106 22.59 106 32.23 17.64 35.71 11.85"/><polygon class="cls-3" points="26.5 27.18 17.9 106 15.06 106 23.03 32.96 26.5 27.18"/><polygon class="cls-4" points="17.3 42.51 10.37 106 7.53 106 13.83 48.29 17.3 42.51"/><polygon class="cls-5" points="8.1 57.83 2.84 106 0 106 4.62 63.62 8.1 57.83"/><text class="cls-6" transform="translate(150.7 108.1)">ASS-SPECC</text><rect class="cls-1" y="122.84" width="594.17" height="35.54"/><text class="cls-7" transform="translate(24.14 150.62)">COOPER<tspan class="cls-8" x="119.6" y="0">A</tspan><tspan x="137.67" y="0">TIVE DEVELOPMENT CENTER</tspan></text></g></g></svg>